<?xml version="1.0" encoding="UTF-8" standalone="no"?>
<svg
   xmlns:dc="http://purl.org/dc/elements/1.1/"
   xmlns:cc="http://creativecommons.org/ns#"
   xmlns:rdf="http://www.w3.org/1999/02/22-rdf-syntax-ns#"
   xmlns:svg="http://www.w3.org/2000/svg"
   xmlns="http://www.w3.org/2000/svg"
   xmlns:sodipodi="http://sodipodi.sourceforge.net/DTD/sodipodi-0.dtd"
   xmlns:inkscape="http://www.inkscape.org/namespaces/inkscape"
   version="1.1"
   xml:space="preserve"
   height="600px"
   width="598px"
   enable-background="new -0.063 -0.031 598 600"
   y="0px"
   x="0px"
   viewBox="-0.063 -0.031 598 600"
   id="svg18"
   sodipodi:docname="Traffic_sign_C115.svg"
   inkscape:version="0.92.3 (2405546, 2018-03-11)"><metadata
   id="metadata24"><rdf:RDF><cc:Work
       rdf:about=""><dc:format>image/svg+xml</dc:format><dc:type
         rdf:resource="http://purl.org/dc/dcmitype/StillImage" /></cc:Work></rdf:RDF></metadata><defs
   id="defs22" /><sodipodi:namedview
   pagecolor="#ffffff"
   bordercolor="#666666"
   borderopacity="1"
   objecttolerance="10"
   gridtolerance="10"
   guidetolerance="10"
   inkscape:pageopacity="0"
   inkscape:pageshadow="2"
   inkscape:window-width="1920"
   inkscape:window-height="1045"
   id="namedview20"
   showgrid="false"
   inkscape:snap-bbox="true"
   inkscape:snap-page="true"
   inkscape:zoom="1.1125147"
   inkscape:cx="239.15714"
   inkscape:cy="347.05348"
   inkscape:window-x="0"
   inkscape:window-y="35"
   inkscape:window-maximized="1"
   inkscape:current-layer="svg18" />

<rect
   style="opacity:1;vector-effect:none;fill:#ffffff;fill-opacity:1;stroke:none;stroke-width:1.33333325;stroke-linecap:butt;stroke-linejoin:miter;stroke-miterlimit:4;stroke-dasharray:none;stroke-dashoffset:0;stroke-opacity:1"
   id="rect834"
   width="598"
   height="600"
   x="-0.063000001"
   y="-0.030999999" /><polyline
   style="stroke-linejoin:round;stroke:#0000ff;stroke-width:0.7087;stroke-linecap:round;fill:#0000ff;"
   points="33.2,564,564,564,564,33.7,33.2,33.7,33.2,564"
   id="polyline4" />
<path
   style="fill:#35b135;"
   d="m58.8,64c0,109,151,184,162,243,10.6,52.7-34.5,174-60.4,233,89.1,0,256-1.39,382-2.87,6.72-227,0-215-108-351-39-45-151-50-156-123-88,0-220,0-220,0z"
   id="path6" />
  <g
   id="g16">
    <path
   style="fill:#ffffff;"
   d="m199,179,2.15-2.58,28-12.5,12.1-25.4,2.15-2.58,3.44-2.15,2.15-0.861,0.364-6.55c-6.24-2.18-10.7-7.87-10.7-14.5,0-8.56,7.32-15.5,16.4-15.5,9.03,0,16.4,6.94,16.4,15.5,0,5.57-3.1,10.4-7.75,13.2v5.33l5.17,1.72,4.31,0.861,3.01,1.29,1.72,2.15,22,22.4,2.15,1.72,10.8,32.7v6.89l-2.58,1.29-3.44,1.29-3.01-0.431-2.15-2.15-13.8-35.3-13.8-10.8,3.87,27.6,43.9,82.2-16.4,9.47h-4.74l-3.01-1.29-1.72-3.44v-3.01l1.29-3.44,3.01-2.15-32.3-58.1h-3.44l-37,71-19.8-9.47-0.861-2.58v-5.17l1.29-2.15,1.72-0.861h5.6l1.72,0.431,34.9-68.9-2.58-25-2.58,0.431-6.03,13.8-29.7,13.8-3.44,1.29h-5.17l-2.58-2.58-1.29-3.44,0.43-3.44z"
   id="path8" />
    <path
   style="fill:#ffffff;"
   d="m456,400-43.2-58.3-7.92-2.16-0.632,0.278c3.62-6.34,3.11-14.7-1.89-20.9-6.47-8.07-18-9.55-25.8-3.33-7.75,6.22-8.79,17.9-2.32,25.9,4.78,5.96,12.3,8.33,19,6.64v5.14l-51.1,45.4-6.48,5.04v8.64l2.16,2.88,5.76,1.44,7.2-1.44,39.6-38.2,5.76,0.72,23.8,34.6-48.3,7.2-7.2,2.88-3.6,2.88-0.72,5.76,25.2,28.1h7.2l5.04-5.04,1.44-5.76-8.64-9.36v-2.88l22.3,0.72-9.36,13.7-2.16,42.5,0.72,7.92,2.16,4.32,4.32,2.16h6.48l4.32-2.16,2.16-5.04v-40.3l33.9-35.3,3.6-9.36v-7.2l-2.88-7.92z"
   id="path10" />
    <ellipse
   style="fill:#ffffff;"
   cx="337"
   cy="238"
   rx="34"
   ry="32.5"
   transform="matrix(1.4404744,0,0,1.4404744,-157.44482,134.03534)"
   id="ellipse12" />
    <ellipse
   style="fill:#ffffff;"
   cx="451"
   cy="237"
   rx="34"
   ry="32.5"
   transform="matrix(1.4404744,0,0,1.4404744,-157.44482,134.03535)"
   id="ellipse14" />
  </g>
</svg>