<?xml version="1.0" encoding="UTF-8" standalone="no"?>
<!-- Generator: Adobe Illustrator 16.0.2, SVG Export Plug-In . SVG Version: 6.00 Build 0)  -->
<svg xmlns:dc="http://purl.org/dc/elements/1.1/" xmlns:cc="http://creativecommons.org/ns#" xmlns:rdf="http://www.w3.org/1999/02/22-rdf-syntax-ns#" xmlns:svg="http://www.w3.org/2000/svg" xmlns="http://www.w3.org/2000/svg" xmlns:sodipodi="http://sodipodi.sourceforge.net/DTD/sodipodi-0.dtd" xmlns:inkscape="http://www.inkscape.org/namespaces/inkscape" version="1.1" id="Ebene_1" x="0px" y="0px" width="600" height="770" viewBox="0 0 600 770" xml:space="preserve" inkscape:version="0.91 r13725" sodipodi:docname="France_road_sign_B30_(30).svg"><metadata id="metadata35"><rdf:RDF><cc:Work rdf:about=""><dc:format>image/svg+xml</dc:format><dc:type rdf:resource="http://purl.org/dc/dcmitype/StillImage"/><dc:title/></cc:Work></rdf:RDF></metadata><defs id="defs33"/><sodipodi:namedview pagecolor="#ffffff" bordercolor="#666666" borderopacity="1" objecttolerance="10" gridtolerance="10" guidetolerance="10" inkscape:pageopacity="0" inkscape:pageshadow="2" inkscape:window-width="1440" inkscape:window-height="788" id="namedview31" showgrid="false" inkscape:zoom="0.36289113" inkscape:cx="-28.530495" inkscape:cy="560.29473" inkscape:window-x="0" inkscape:window-y="1" inkscape:window-maximized="1" inkscape:current-layer="Ebene_1"/><path style="fill:#ff0000;stroke:#000000;stroke-width:2" d="M 1,714.19917 1,56.584263 C 1,42.050195 5.4997964,28.110781 13.510631,17.834067 21.521466,7.5573527 32.38583,1.7824381 43.71514,1.7824381 l 512.57172,0 c 11.32831,0 22.19168,5.7739169 30.20251,16.0506309 C 594.49921,28.110781 599,42.049198 599,56.583265 l 0,657.614905 c 0,14.53307 -4.5008,28.47349 -12.51063,38.7502 C 578.47853,763.22608 567.61417,769 556.28686,769 L 43.71514,769 C 32.386828,769 21.521466,763.22608 13.512627,752.94837 5.4997964,742.67265 1,728.73424 1,714.19917 Z" id="path3" inkscape:connector-curvature="0"/><path style="opacity:1;fill:#ffffff;stroke:none;enable-background:new" d="m 15.894725,702.42884 0,-632.031876 c 0,-13.968349 4.275306,-27.364993 11.887046,-37.242612 7.611739,-9.877618 17.93533,-15.426046 28.698923,-15.426046 l 487.035616,0 c 10.76459,0 21.09018,5.548428 28.69992,15.426046 7.61374,9.877619 11.88904,23.274263 11.88904,37.242612 l 0,632.032876 c 0,13.96835 -4.2753,27.36499 -11.88904,37.24062 -7.61073,9.87762 -17.93533,15.42904 -28.69992,15.42904 l -487.034618,0 c -10.764591,0 -21.087184,-5.55043 -28.698924,-15.42904 -7.61174,-9.87662 -11.888043,-23.27327 -11.888043,-37.24162 z" id="path5" inkscape:connector-curvature="0"/><g id="g4339" transform="matrix(0.99773756,0,0,0.99773922,650.24567,0.7846989)" style="fill:#000000"><path d="m -481.97557,105.32877 -0.0671,19.00024 -42.29736,60.82764 43.50585,0 0,18.46313 -66.53442,0 0,-19.73877 41.29028,-59.552 -39.20898,0 0,-19.00024 63.31177,0 z" style="font-style:normal;font-variant:normal;font-weight:500;font-stretch:normal;font-size:137.5px;line-height:125%;font-family:'Caracteres L1';-inkscape-font-specification:'Caracteres L1 Medium';letter-spacing:30px;word-spacing:0px;fill:#000000;fill-opacity:1;stroke:none;stroke-width:1px;stroke-linecap:butt;stroke-linejoin:miter;stroke-opacity:1" id="path4327" inkscape:connector-curvature="0"/><path d="m -399.95726,103.986 q 16.24756,2.48413 24.03564,19.20165 6.64673,12.35352 6.64673,30.34668 l 0,1.2085 q 0,22.49145 -10.9436,38.26904 -7.78809,10.60791 -22.02149,11.88354 -1.47705,0.13428 -2.88696,0.13428 -14.77051,0 -24.77417,-12.48779 -10.33936,-16.65039 -10.47363,-34.17358 -0.0671,-1.47706 -0.0671,-2.95411 0,-23.69995 10.54077,-39.20898 7.04956,-8.45947 14.70337,-10.80932 5.30395,-1.67847 10.60791,-1.67847 2.34985,0 4.63257,0.26855 z m -5.16968,83.85619 q 7.78809,-0.40283 13.15918,-10.67505 3.89404,-6.84814 4.90112,-20.1416 0.20142,-16.91894 -5.97534,-27.72827 -5.0354,-7.51953 -11.14502,-8.39233 -8.05664,0.40283 -13.42773,10.54077 -3.82691,7.1167 -4.96826,20.41015 -0.13428,16.91895 6.10961,27.66114 4.96827,7.51953 11.34644,8.32519 z" style="font-style:normal;font-variant:normal;font-weight:500;font-stretch:normal;font-size:137.5px;line-height:125%;font-family:'Caracteres L1';-inkscape-font-specification:'Caracteres L1 Medium';letter-spacing:30px;word-spacing:0px;fill:#000000;fill-opacity:1;stroke:none;stroke-width:1px;stroke-linecap:butt;stroke-linejoin:miter;stroke-opacity:1" id="path4329" inkscape:connector-curvature="0"/><path d="m -306.3098,105.06021 24.70703,52.50244 0,-52.50244 18.26172,0 0.0671,98.55957 -17.92603,0 -30.01098,-62.10327 -0.0671,62.17041 -18.46314,0 0,-98.62671 23.4314,0 z" style="font-style:normal;font-variant:normal;font-weight:500;font-stretch:normal;font-size:137.5px;line-height:125%;font-family:'Caracteres L1';-inkscape-font-specification:'Caracteres L1 Medium';letter-spacing:30px;word-spacing:0px;fill:#000000;fill-opacity:1;stroke:none;stroke-width:1px;stroke-linecap:butt;stroke-linejoin:miter;stroke-opacity:1" id="path4331" inkscape:connector-curvature="0"/><path d="m -156.45677,105.26163 0,17.99316 -40.68604,0 0,21.48437 29.80957,0 0,18.19459 -29.80957,0 0,22.49145 42.43164,0 0,18.19458 -61.36474,0 0.0671,-98.35815 59.55201,0 z" style="font-style:normal;font-variant:normal;font-weight:500;font-stretch:normal;font-size:137.5px;line-height:125%;font-family:'Caracteres L1';-inkscape-font-specification:'Caracteres L1 Medium';letter-spacing:30px;word-spacing:0px;fill:#000000;fill-opacity:1;stroke:none;stroke-width:1px;stroke-linecap:butt;stroke-linejoin:miter;stroke-opacity:1" id="path4333" inkscape:connector-curvature="0"/></g><g id="g4378" transform="matrix(0.99773756,0,0,0.99773922,-3.048814,0.7846989)"><path id="ellipse7" d="m 488.97899,471.22198 a 185.243,184.243 0 0 1 -185.243,184.243 185.243,184.243 0 0 1 -185.24299,-184.243 185.243,184.243 0 0 1 185.24299,-184.24299 185.243,184.243 0 0 1 185.243,184.24299 z" style="opacity:0.98999999;fill:#ff0000;stroke:#ed2024;stroke-width:0.17679986;stroke-linecap:round;stroke-linejoin:round;enable-background:new" inkscape:connector-curvature="0"/><path id="ellipse9" d="M 437.11099,469.979 A 133.375,132.655 0 0 1 303.73599,602.634 133.375,132.655 0 0 1 170.361,469.979 133.375,132.655 0 0 1 303.73599,337.32401 133.375,132.655 0 0 1 437.11099,469.979 Z" style="fill:#ffffff;stroke:#ed2024;stroke-width:0.17679986;stroke-linecap:round;stroke-linejoin:round" inkscape:connector-curvature="0"/><g transform="translate(-0.19651,0)" id="g4374"><path id="path4352" style="font-style:normal;font-variant:normal;font-weight:500;font-stretch:normal;font-size:125px;line-height:125%;font-family:'Caracteres L1';-inkscape-font-specification:'Caracteres L1 Medium';letter-spacing:-4.27158737px;word-spacing:0px;fill:#000000;fill-opacity:1;stroke:none;stroke-width:1px;stroke-linecap:butt;stroke-linejoin:miter;stroke-opacity:1" d="m 257.67225,401.98539 q 8.2017,1.70035 15.60321,6.60135 l 6.80141,5.80119 q 4.50095,5.40111 5.80129,7.60155 l 3.10048,6.20127 q 2.60068,7.60157 2.8006,15.50317 l -0.49998,7.60155 -1.70035,5.60115 q -2.90072,7.20147 -9.0019,14.603 l 0.50014,1.30025 4.80101,5.3011 3.10048,4.70095 2.8006,7.00143 q 2.30046,7.3015 2.30046,14.30293 0,14.2029 -9.50188,27.00552 -14.40301,17.30354 -37.30761,18.1037 -8.30166,0 -13.70277,-1.0002 -7.0015,-1.9004 -9.90206,-3.20065 l -6.00121,-3.00062 -5.10106,-3.70076 -4.60091,-4.10083 -4.70104,-6.10126 q -4.10077,-6.70136 -5.80112,-12.70259 l -0.1,-0.90019 26.30547,-7.20147 q 1.90044,7.50154 9.50187,11.40233 4.70104,1.9004 13.90287,2.10044 l 4.70104,-0.50011 3.80072,-1.20025 2.90056,-1.70035 q 3.00068,-2.0004 5.4011,-5.9012 1.20021,-2.50051 1.80048,-6.80139 0.19993,-3.50071 -0.40018,-4.00082 0.20009,-1.60032 -1.4003,-4.901 l -2.50054,-3.50071 q -2.70047,-2.70056 -4.70088,-3.70076 -2.50054,-1.40028 -6.70144,-2.30047 l -10.90218,-0.30007 0,-27.10553 q 2.2005,0.20004 8.70185,-0.60012 l 0.19992,0.20004 q 11.90247,-1.4003 15.00312,-13.00266 l -0.20009,-4.50093 0.20009,-0.70014 -0.40002,-1.4003 -1.90044,-3.70075 q -2.8006,-3.50072 -5.10105,-4.60093 -0.40002,-0.30007 -6.80141,-1.80038 l -6.30127,0.20004 0,-0.20004 -6.2013,1.00022 -4.40082,1.90037 -1.80048,1.4003 -2.0004,2.9006 -1.50026,3.70075 -26.00525,-7.80161 1.70035,-4.50091 0.6001,-0.60012 q -0.20009,-0.5001 2.30046,-5.00103 l 2.8006,-4.50092 4.0008,-4.60094 q 2.2005,-1.20025 2.2005,-1.80037 l 2.10036,-1.50031 q 7.80153,-5.80119 18.20373,-7.40151 5.20102,-0.80016 12.50256,-0.80016 5.30099,0 10.70209,0.80016 z" inkscape:connector-curvature="0"/><path id="path4354" style="font-style:normal;font-variant:normal;font-weight:500;font-stretch:normal;font-size:125px;line-height:125%;font-family:'Caracteres L1';-inkscape-font-specification:'Caracteres L1 Medium';letter-spacing:-4.27158737px;word-spacing:0px;fill:#000000;fill-opacity:1;stroke:none;stroke-width:1px;stroke-linecap:butt;stroke-linejoin:miter;stroke-opacity:1" d="m 353.69344,521.60986 q 6.20114,0.40008 7.70156,-0.20004 l 0.1,0.20004 5.50107,-1.20024 q 6.60148,-2.20047 10.10214,-9.50195 2.70047,-7.3015 4.00081,-17.40356 l 0.50014,-22.60463 -0.30005,-10.60216 -1.00028,-7.90162 -0.40002,-0.40008 -1.30034,-5.60115 -0.40001,-0.20004 q -1.50026,-6.00123 -5.70116,-11.10226 -3.20061,-2.60055 -5.10106,-3.40071 l -5.80128,-1.40028 -6.10118,-0.30005 q -4.10077,-0.1 -9.10186,1.70033 -4.60091,2.20046 -7.70156,7.90162 -2.2005,5.30108 -4.00081,13.30273 l 0.20009,0.60012 q -0.60027,0.50009 -0.70023,3.30068 -1.4003,11.70238 -0.30005,34.30701 l 1.60038,10.90223 2.10037,7.70158 q 2.30046,6.00121 6.30127,8.70177 3.60079,2.30047 9.80209,3.20066 z m -49.81017,-30.20618 q -0.30006,-5.60115 -0.30006,-11.00226 0,-2.70053 0.1,-5.40109 0.30005,-10.60217 1.70035,-20.60422 l 0,-0.70014 0.40001,-0.90019 0.70024,-6.9014 0.49997,-1.00022 1.00029,-5.60113 0.40001,-0.60014 q 1.50043,-7.20147 6.50136,-16.2033 l 2.90056,-4.40091 5.60119,-5.70116 q 8.90178,-7.20147 23.10469,-10.3021 4.50095,-0.80016 9.30196,-0.80016 l 0.80019,0 q 7.50147,0.20004 15.70318,2.50051 3.4007,0.40008 10.90218,4.50092 7.70156,4.80097 14.00299,13.10267 l 3.20061,4.90101 2.60051,5.50112 1.10025,4.00083 0.30005,0.30005 0,1.0002 q 1.00012,2.10043 1.20021,3.30068 l 0.40018,0.5001 1.70035,8.90183 0.30005,0.20004 -0.20009,1.30025 0.40002,0.80018 1.00028,10.70218 0.40002,1.00021 -0.30006,0.1 0.70024,6.3013 -0.20009,0.20004 q 0.40001,1.0002 0,1.20024 l 0.30005,1.0002 -0.20009,0.30007 0.50014,6.80139 -0.20009,0.20004 0.30005,2.90059 -0.1,0.20004 0,4.00083 q -0.1,3.70075 -0.6001,8.9018 l -0.50015,3.70076 0.20009,0.20006 -0.50014,1.0002 q -0.30005,3.70075 -1.70035,8.80179 l -0.6001,1.90039 -0.1,1.10023 -2.60067,7.40152 -0.49998,0.40008 q 0,1.0002 -2.60051,6.10124 l -4.801,6.90141 q -7.90165,9.10187 -17.50366,13.30272 -6.30126,2.50051 -12.70249,3.30067 l -7.70172,0.50011 -1.80032,-0.1 q -22.80464,-0.60012 -36.80746,-14.80303 -6.90137,-7.70158 -10.4022,-17.90365 -4.00081,-10.40213 -4.90097,-21.90448 l -0.40001,-4.40091 z" inkscape:connector-curvature="0"/></g></g><script xmlns=""/></svg>