<?xml version="1.0" encoding="UTF-8" standalone="no"?>
<!-- Generator: Adobe Illustrator 13.0.0, SVG Export Plug-In  -->

<svg
   xmlns:dc="http://purl.org/dc/elements/1.1/"
   xmlns:cc="http://creativecommons.org/ns#"
   xmlns:rdf="http://www.w3.org/1999/02/22-rdf-syntax-ns#"
   xmlns:svg="http://www.w3.org/2000/svg"
   xmlns="http://www.w3.org/2000/svg"
   xmlns:sodipodi="http://sodipodi.sourceforge.net/DTD/sodipodi-0.dtd"
   xmlns:inkscape="http://www.inkscape.org/namespaces/inkscape"
   version="1.1"
   x="0px"
   y="0px"
   width="197.60001"
   height="174.05"
   viewBox="-0.781 -0.08 197.60001 174.05"
   enable-background="new -0.781 -0.08 576 506"
   xml:space="preserve"
   id="svg2"
   inkscape:version="0.92.3 (2405546, 2018-03-11)"
   sodipodi:docname="Traffic_sign_M12a.svg"><metadata
   id="metadata18"><rdf:RDF><cc:Work
       rdf:about=""><dc:format>image/svg+xml</dc:format><dc:type
         rdf:resource="http://purl.org/dc/dcmitype/StillImage" /><dc:title /></cc:Work></rdf:RDF></metadata><sodipodi:namedview
   pagecolor="#ffffff"
   bordercolor="#666666"
   borderopacity="1"
   objecttolerance="10"
   gridtolerance="10"
   guidetolerance="10"
   inkscape:pageopacity="0"
   inkscape:pageshadow="2"
   inkscape:window-width="1920"
   inkscape:window-height="1045"
   id="namedview16"
   showgrid="false"
   fit-margin-top="0.3"
   fit-margin-left="0.3"
   fit-margin-right="0.3"
   fit-margin-bottom="0.3"
   inkscape:zoom="5.6568542"
   inkscape:cx="121.65768"
   inkscape:cy="100.6264"
   inkscape:window-x="1680"
   inkscape:window-y="481"
   inkscape:window-maximized="1"
   inkscape:current-layer="g3883"
   showguides="true"
   inkscape:guide-bbox="true"
   inkscape:snap-bbox="true"
   inkscape:bbox-paths="true"
   inkscape:bbox-nodes="true"
   inkscape:snap-bbox-edge-midpoints="true"
   inkscape:snap-bbox-midpoints="true"
   inkscape:object-paths="true"
   inkscape:snap-intersection-paths="true"
   inkscape:object-nodes="true"
   inkscape:snap-midpoints="true"
   inkscape:snap-smooth-nodes="true"
   inkscape:snap-object-midpoints="true"
   inkscape:snap-center="true"
   inkscape:snap-page="true" />
<defs
   id="defs4">
</defs>





<g
   transform="matrix(-0.45161367,0,0,0.45161367,138.99647,15.446347)"
   style="fill:#ffff00"
   id="g3883"><path
     inkscape:connector-curvature="0"
     d="M 111.18161,338.49993 305.59692,1.7616371 c 4.20038,-7.2752398 4.20059,-16.2390701 2.3e-4,-23.5143001 -4.20073,-7.275887 -11.96336,-11.756959 -20.36409,-11.756948 l -388.83119,1.4e-4 c -8.40073,1.1e-5 -16.1633,4.481732 -20.36433,11.757352 -4.19972,7.27486 -4.19993,16.2386906 4.3e-4,23.51392 L 70.453459,338.49929 c 4.200356,7.27523 11.963368,11.75696 20.36344,11.75733 8.401387,-3.9e-4 16.164331,-4.48145 20.364711,-11.75669 z"
     id="path6"
     style="fill:#ffffff;stroke:#000000;stroke-width:4.42856391;stroke-linecap:round;stroke-linejoin:round;stroke-miterlimit:4;stroke-dasharray:none;stroke-opacity:1" /><path
     style="fill:#f91a0e;fill-opacity:1;stroke:none;stroke-width:0.75942069"
     inkscape:connector-curvature="0"
     d="m -103.66674,-24.103653 388.96796,-1.84e-4 c 5.02665,4.13e-4 9.67084,2.681354 12.18414,7.034522 2.5133,4.353168 2.51297,9.7156232 0,14.0690357 L 103.00162,333.85644 c -2.51296,4.35341 -7.157861,7.03427 -12.18413,7.03451 -5.025991,-7.9e-4 -9.670837,-2.68135 -12.18414,-7.03452 L -115.85087,-3.0001027 c -2.5133,-4.3531679 -2.51297,-9.7156233 -1e-5,-14.0690363 2.51297,-4.353412 7.15749,-7.034927 12.18414,-7.034514 z"
     id="path8" /><polygon
     style="fill:#ffffff;stroke:none"
     transform="matrix(-0.37971035,-0.65767758,-0.65767758,0.37971035,414.65354,167.00488)"
     points="510.884,455.888 63.23,455.888 287.057,68.208 "
     id="polygon10" /><g
     style="stroke-width:4.12062979;stroke-miterlimit:4;stroke-dasharray:none"
     transform="matrix(1.0745714,0,0,1.0748884,-4.1449012,11.007274)"
     id="g3863"><circle
       style="fill:#ffff00;fill-opacity:1;fill-rule:nonzero;stroke:#000000;stroke-width:1.92624247;stroke-miterlimit:4;stroke-dasharray:none;stroke-opacity:1"
       id="path3825"
       transform="matrix(-2.1560868,0,0,2.1224576,308.89797,-53.627468)"
       cx="75.407013"
       cy="61.625763"
       r="15.407015" /><circle
       style="fill:#ffff00;fill-opacity:1;fill-rule:nonzero;stroke:#000000;stroke-width:1.92624247;stroke-miterlimit:4;stroke-dasharray:none;stroke-opacity:1"
       id="path3825-7"
       transform="matrix(-2.1560868,0,0,2.1224576,196.87253,-53.627468)"
       cx="75.407013"
       cy="61.625763"
       r="15.407015" /></g><path
     sodipodi:nodetypes="cccccccccccccccccccccccccccccccccc"
     inkscape:connector-curvature="0"
     id="path3867"
     d="M 132.38666,65.312795 120.82749,50.180494 105.05412,89.625553 c 1.50316,1.140963 3.10992,2.611928 3.37973,6.013045 h 8.99082 l 0.24814,4.873792 -9.25221,0.14679 c -1.12379,5.64491 -6.39231,7.59973 -10.409773,7.61138 -7.053605,-0.0789 -10.829235,-5.53852 -10.149675,-15.4894 L 53.948391,55.702805 50.982627,63.76113 C 49.254101,62.737027 47.57273,61.94877 45.918432,61.295925 l 9.607311,-26.577884 -7.886698,-3.628952 c -5.436364,-5.146211 -2.68573,-8.245082 0,-11.360173 1.683907,-2.019769 3.197806,-2.70888 5.316302,-3.424541 1.021767,-0.530339 2.431401,-0.569444 3.730719,-0.835521 h 11.773841 c 4.22777,2.544056 1.359943,5.340744 0,5.522303 H 55.841205 c -8.613893,3.318987 -6.17093,5.753158 0,7.889015 2.069367,1.137146 6.811901,2.031217 5.948042,3.435107 0.0097,1.073878 -1.424214,5.319472 -2.138944,7.984959 h 56.602907 l 1.90853,-7.124844 c 1.45335,-2.167674 -4.02023,-3.732819 -9.21556,-5.32217 -4.05135,-0.831061 -4.34295,-3.367099 0,-3.864246 h 24.81547 c 4.3848,0.93439 2.0862,6.656591 0,6.311208 l -4.39905,0.502058 c -2.42038,0.152043 -3.10212,1.051951 -5.01877,4.350848 -2.17642,3.116198 -3.02819,7.070347 0.11152,10.925122 l 12.50768,16.515856 c -1.36442,0.730224 -3.50543,1.9885 -4.57637,2.718725 z"
     style="fill:#ffff00;stroke:#000000;stroke-width:4.42856407;stroke-linecap:butt;stroke-linejoin:miter;stroke-miterlimit:4;stroke-dasharray:none;stroke-opacity:1" /><path
     inkscape:connector-curvature="0"
     id="path3869"
     d="m 115.1888,46.608917 -57.028508,-1.153015 -1.564547,4.408391 35.427426,37.692686 7.001488,-0.09786 z"
     style="fill:#ffffff;fill-opacity:1;stroke:#000000;stroke-width:4.42856407;stroke-linecap:butt;stroke-linejoin:miter;stroke-miterlimit:4;stroke-dasharray:none;stroke-opacity:1"
     sodipodi:nodetypes="cccccc" /><path
     inkscape:connector-curvature="0"
     id="path3873"
     d="m 83.314286,169.94666 v -23.02188 l -37.539248,37.57594 37.671415,37.70823 V 198.52553 H 135.92211 V 169.1528 Z"
     style="fill:#ffff00;stroke:#000000;stroke-width:4.42856391;stroke-linecap:butt;stroke-linejoin:miter;stroke-miterlimit:4;stroke-dasharray:none;stroke-opacity:1" /></g></svg>