<?xml version="1.0" encoding="UTF-8" standalone="no"?>
<!-- Generator: Adobe Illustrator 13.0.0, SVG Export Plug-In . SVG Version: 6.00 Build 14948)  -->
<svg xmlns:dc="http://purl.org/dc/elements/1.1/" xmlns:cc="http://creativecommons.org/ns#" xmlns:rdf="http://www.w3.org/1999/02/22-rdf-syntax-ns#" xmlns:svg="http://www.w3.org/2000/svg" xmlns="http://www.w3.org/2000/svg" xmlns:sodipodi="http://sodipodi.sourceforge.net/DTD/sodipodi-0.dtd" xmlns:inkscape="http://www.inkscape.org/namespaces/inkscape" version="1.1" id="Layer_1" x="0px" y="0px" width="577.13751" height="577.13751" viewBox="-0.943 -0.943 577.13751 577.13751" enable-background="new -0.943 -0.943 576 576" xml:space="preserve" inkscape:version="0.91 r13725" sodipodi:docname="France_road_sign_B22a.svg"><metadata id="metadata41"><rdf:RDF><cc:Work rdf:about=""><dc:format>image/svg+xml</dc:format><dc:type rdf:resource="http://purl.org/dc/dcmitype/StillImage"/></cc:Work></rdf:RDF></metadata><defs id="defs39"/><sodipodi:namedview pagecolor="#ffffff" bordercolor="#666666" borderopacity="1" objecttolerance="10" gridtolerance="10" guidetolerance="10" inkscape:pageopacity="0" inkscape:pageshadow="2" inkscape:window-width="1440" inkscape:window-height="788" id="namedview37" showgrid="false" fit-margin-top="0.1" fit-margin-left="0.1" fit-margin-right="0.1" fit-margin-bottom="0.1" inkscape:zoom="0.68694702" inkscape:cx="19.501625" inkscape:cy="288.57414" inkscape:window-x="0" inkscape:window-y="1" inkscape:window-maximized="1" inkscape:current-layer="Layer_1"/><circle cx="287.05701" cy="287.05701" r="286.96899" id="circle3" style="fill:#ffffff;stroke:#000000;stroke-width:3;stroke-linecap:round;stroke-linejoin:round;stroke-miterlimit:4;stroke-opacity:1;stroke-dasharray:none" sodipodi:cx="287.05701" sodipodi:cy="287.05701" sodipodi:rx="286.96899" sodipodi:ry="286.96899" transform="translate(0.56325,0.56325)"/><circle cx="287.05701" cy="287.05701" r="261.66599" id="circle5" style="fill:#003399;fill-opacity:1;stroke:none" sodipodi:cx="287.05701" sodipodi:cy="287.05701" sodipodi:rx="261.66599" sodipodi:ry="261.66599" transform="translate(0.56325,0.56325)"/><path id="circle4300" d="m 208.29145,168.54297 c -20.78132,-0.70314 -26.89009,26.72193 -11.10261,32.12313 l 15.27516,5.69499 -19.59821,57.37736 a 75.664198,75.65315 0 0 0 -30.55636,-6.54383 75.664198,75.65315 0 0 0 -75.665341,75.65429 75.664198,75.65315 0 0 0 75.665341,75.65436 75.664198,75.65315 0 0 0 75.66537,-75.65436 75.664198,75.65315 0 0 0 -33.54276,-62.77733 l 5.87646,-17.00672 71.90828,79.81418 a 24.661838,24.658237 0 0 0 -2.36624,10.46891 24.661838,24.658237 0 0 0 24.61969,24.65823 l 2.92019,16.94053 -6.61103,1.13778 1.84241,10.73379 23.57807,-4.05754 -1.84844,-10.73378 -5.82226,0.99931 -3.02854,-17.61472 a 24.661838,24.658237 0 0 0 13.10162,-16.86227 l 18.40606,-1.27625 a 75.664198,75.65315 0 0 0 74.25043,61.23024 75.664198,75.65315 0 0 0 75.66535,-75.65436 75.664198,75.65315 0 0 0 -75.66535,-75.65429 75.664198,75.65315 0 0 0 -34.22316,8.26558 l -28.8524,-41.85158 6.65316,-19.64351 c 9.19282,-2.22794 17.42965,-4.31652 20.92887,-8.60872 4.92807,-6.04493 -1.58833,-14.49809 -11.73486,-14.25554 l -40.14774,0 c -8.83124,-0.12298 -12.2003,9.09043 -6.71937,12.26892 l 24.10188,9.84282 -4.57596,13.5211 -123.82696,0 3.19714,-9.24684 -0.0189,-0.006 2.69135,-8.85554 c -9.02669,-4.0741 -28.19204,-6.32825 -25.64928,-13.51507 0.75838,-7.9521 28.93968,-3.24938 38.504,-5.17727 l 0,-11.38998 -33.29587,0 z m 10.13329,61.03756 124.33881,0 -30.58044,90.34934 a 24.661838,24.658237 0 0 0 -4.69636,-1.0415 l -2.79373,-16.25419 5.73193,-0.98729 -1.84843,-10.7338 -23.57204,4.05751 1.84846,10.72779 6.69527,-1.14984 2.68538,15.59203 a 24.661838,24.658237 0 0 0 -3.31754,1.46886 l -76.82141,-85.28039 2.3301,-6.74852 z m 134.93567,12.27492 21.56706,31.2924 a 75.664198,75.65315 0 0 0 -29.33408,59.70106 75.664198,75.65315 0 0 0 0.006,0.16855 l -18.16538,1.2582 a 24.661838,24.658237 0 0 0 -3.35976,-5.91168 l 29.28625,-86.50856 z m -191.05098,27.01813 a 63.981002,63.971662 0 0 1 26.76919,5.94784 l -13.46289,39.41946 c -0.80782,2.89596 -3.69113,4.73688 -6.43037,6.62208 a 13.872284,13.870259 0 0 0 -7.48406,-2.20936 13.872284,13.870259 0 0 0 -13.87228,13.87026 13.872284,13.870259 0 0 0 13.87228,13.87027 13.872284,13.870259 0 0 0 13.8723,-13.87027 13.872284,13.870259 0 0 0 -0.12649,-1.69767 c 5.24402,-3.3281 10.10398,-7.29204 11.29532,-9.57193 l 13.70969,-39.67831 a 63.981002,63.971662 0 0 1 25.84197,51.27296 63.981002,63.971662 0 0 1 -63.98473,63.96937 63.981002,63.971662 0 0 1 -63.978691,-63.96937 63.981002,63.971662 0 0 1 63.978691,-63.97533 z m 258.94931,0 a 63.981002,63.971662 0 0 1 63.98473,63.97533 63.981002,63.971662 0 0 1 -63.98473,63.96937 63.981002,63.971662 0 0 1 -62.43132,-50.36394 l 52.88808,-3.66626 a 13.872284,13.870259 0 0 0 9.93459,4.18998 13.872284,13.870259 0 0 0 13.8723,-13.87026 13.872284,13.870259 0 0 0 -11.24114,-13.61139 l -30.55636,-44.33186 a 63.981002,63.971662 0 0 1 27.53385,-6.29097 z m -39.73833,13.83414 29.02705,42.11045 a 13.872284,13.870259 0 0 0 -2.02304,3.83479 l -51.21424,3.55182 a 63.981002,63.971662 0 0 1 24.21023,-49.49706 z" style="fill:#ffffff;stroke:none;stroke-width:2.16587019" inkscape:connector-curvature="0"/></svg>